<svg height="512" viewBox="0 0 64 64" width="512" xmlns="http://www.w3.org/2000/svg"><g id="Bag"><path d="m61 59v-30l-13 10h-32l-13-10v30a2 2 0 0 0 2 2h54a2 2 0 0 0 2-2z" fill="#a97c50"/><path d="m30 61h29a2 2 0 0 0 2-2v-22c0 13.266-13.865 24-31 24z" fill="#8b5e3c"/><path d="m48 39h-32l-13-10v2l13 10h32l13-10v-2z" fill="#8b5e3c"/><path d="m48 39 13-10v-6a2 2 0 0 0 -2-2h-54a2 2 0 0 0 -2 2v6l13 10z" fill="#c49a6c"/><path d="m34 35h-4a1 1 0 0 0 -1 1v3h6v-3a1 1 0 0 0 -1-1z" fill="#58595b"/><path d="m29 44a1 1 0 0 0 1 1h4a1 1 0 0 0 1-1v-5h-6z" fill="#6d6e71"/><path d="m55 18a1 1 0 0 0 -1-1h-2a1 1 0 0 0 -1 1v3h4z" fill="#ffcd00"/><path d="m13 18a1 1 0 0 0 -1-1h-2a1 1 0 0 0 -1 1v3h4z" fill="#ffcd00"/><path d="m23 13a2 2 0 0 1 2-2h14a2 2 0 0 1 2 2v8h4v-8a6 6 0 0 0 -6-6h-14a6 6 0 0 0 -6 6v8h4z" fill="#58595b"/></g></svg>