<svg height="512pt" viewBox="0 0 512 512" width="512pt" xmlns="http://www.w3.org/2000/svg"><path d="m512 256c0 141.386719-114.613281 256-256 256s-256-114.613281-256-256 114.613281-256 256-256 256 114.613281 256 256zm0 0" fill="#4bb9ec"/><path d="m256.125 512c137.234375-.066406 249.207031-108.117188 255.578125-243.792969l-154.460937-154.460937-157.746094 157.75 25.664062 25.664062-91.9375 91.941406zm0 0" fill="#0095ff"/><path d="m407.257812 247.664062v125.585938c0 13.898438-11.425781 25.007812-25.007812 25.007812-13.835938 0-41.675781-11.171874-41.675781-25.007812v-125.585938zm0 0" fill="#a3a3d1"/><path d="m357.242188 373.25v-259.507812h-234.5v251.171874c0 18.339844 15.003906 33.34375 33.34375 33.34375h226.164062c-13.835938 0-25.007812-11.171874-25.007812-25.007812zm0 0" fill="#f2f2fc"/><path d="m382.25 398.257812h-142.257812v-284.515624h117.25v259.507812c0 13.835938 11.171874 25.007812 25.007812 25.007812zm0 0" fill="#d8d8fc"/><path d="m147.75 230.992188h83.910156v16.671874h-83.910156zm0 0" fill="#d8d8fc"/><path d="m265 230.992188h67.238281v16.671874h-67.238281zm0 0" fill="#a3a3d1"/><path d="m147.75 264.335938h83.910156v16.671874h-83.910156zm0 0" fill="#d8d8fc"/><path d="m265 264.335938h67.238281v16.671874h-67.238281zm0 0" fill="#a3a3d1"/><path d="m147.75 297.675781h83.910156v16.671875h-83.910156zm0 0" fill="#d8d8fc"/><path d="m147.75 331.019531h83.910156v16.667969h-83.910156zm0 0" fill="#d8d8fc"/><path d="m332.238281 347.6875h-67.238281v-50.011719h67.238281zm0 0" fill="#a3a3d1"/><path d="m147.75 147.085938v67.238281h184.488281v-67.238281zm0 0" fill="#ff641a"/><path d="m239.992188 147.085938h92.246093v67.238281h-92.246093zm0 0" fill="#f03800"/></svg>