<?xml version="1.0" encoding="iso-8859-1"?>
<!-- Generator: Adobe Illustrator 19.0.0, SVG Export Plug-In . SVG Version: 6.00 Build 0)  -->
<svg version="1.1" id="Layer_1" xmlns="http://www.w3.org/2000/svg" xmlns:xlink="http://www.w3.org/1999/xlink" x="0px" y="0px"
	 viewBox="0 0 512 512" style="enable-background:new 0 0 512 512;" xml:space="preserve">
<g>
	<circle style="fill:#A6DAE8;" cx="256" cy="256" r="256"/>
	<path style="fill:#95C2D8;" d="M437.018,437.018c38.369-38.369,61.952-85.898,70.871-135.542l-0.061-0.046
		c-0.563-0.758-169.697-170.076-170.47-170.701c-22.963-18.427-51.855-28.575-81.357-28.575s-58.394,10.148-81.362,28.575
		c-3.999,3.205-5.187,8.556-3.343,13.066c-21.975,21.053-36.168,50.161-37.714,82.55c-4.598,1.526-7.931,5.806-7.931,10.916v5.719
		h-18.98c-12.483,0-22.6,10.117-22.6,22.6v45.553v42.312c0,6.948,3.2,13.087,8.136,17.229
		c0.845,1.004,139.5,139.561,140.211,140.211C305.546,517.627,381.025,493.015,437.018,437.018z"/>
	<path style="fill:#FDC00F;" d="M84.065,265.585v87.864c0,12.483,10.117,22.6,22.6,22.6h18.98V242.98h-18.98
		C94.182,242.985,84.065,253.102,84.065,265.585z"/>
	<path style="fill:#FDC00F;" d="M405.335,242.985H386.35v133.069h18.985c12.483,0,22.6-10.117,22.6-22.6v-87.869
		C427.935,253.102,417.818,242.985,405.335,242.985z"/>
	<path style="fill:#EB9900;" d="M386.35,311.137v64.916h18.985c12.483,0,22.6-10.117,22.6-22.6v-42.312H386.35V311.137z"/>
	<path style="fill:#EB9900;" d="M84.065,311.137v42.312c0,12.483,10.117,22.6,22.6,22.6h18.98v-64.911H84.065z"/>
	<path style="fill:#FFFFFF;" d="M378.568,232.259h-7.532c0-63.427-51.604-115.031-115.031-115.031
		c-63.432,0-115.036,51.604-115.036,115.031h-7.532c0-67.584,54.984-122.568,122.568-122.568
		C323.584,109.696,378.568,164.675,378.568,232.259z"/>
	<path style="fill:#2C5871;" d="M330.281,150.851c-2.478,0-4.977-0.814-7.066-2.488c-19.241-15.442-42.481-23.598-67.215-23.598
		c-24.73,0-47.974,8.161-67.22,23.598c-4.869,3.912-11.971,3.128-15.882-1.746c-3.907-4.869-3.128-11.981,1.746-15.882
		c22.968-18.427,51.86-28.575,81.362-28.575c29.501,0,58.394,10.148,81.357,28.575c4.869,3.907,5.652,11.018,1.746,15.887
		C336.87,149.402,333.594,150.851,330.281,150.851z"/>
	<path style="fill:#2C5871;" d="M148.751,381.773c0,6.38-5.171,11.551-11.551,11.551c-6.38,0-11.551-5.171-11.551-11.551V237.266
		c0-6.38,5.171-11.551,11.551-11.551c6.38,0,11.551,5.171,11.551,11.551V381.773z"/>
	<path style="fill:#2C5871;" d="M363.249,381.773c0,6.38,5.171,11.551,11.551,11.551c6.38,0,11.551-5.171,11.551-11.551V237.266
		c0-6.38-5.171-11.551-11.551-11.551c-6.379,0-11.551,5.171-11.551,11.551V381.773z"/>
	<path style="fill:#FC611F;" d="M201.206,232.632v30.305c-1.976-0.911-4.536-1.167-7.342-0.548
		c-6.252,1.372-11.32,6.528-11.32,11.51c0,4.982,5.069,7.91,11.32,6.533c6.252-1.372,11.32-6.528,11.32-11.51v-37.161
		L201.206,232.632z"/>
	<path style="fill:#FC611F;" d="M325.484,304.43v30.305c-1.976-0.911-4.536-1.167-7.342-0.548c-6.252,1.372-11.32,6.528-11.32,11.51
		s5.069,7.91,11.32,6.533c6.252-1.372,11.32-6.528,11.32-11.51V303.56L325.484,304.43z"/>
	<path style="fill:#133142;" d="M299.243,233.421l-58.194,12.79l-7.572,1.664v12.375v45.317c-3.763-1.736-8.643-2.222-13.978-1.044
		c-11.904,2.616-21.55,12.426-21.55,21.914s9.651,15.058,21.55,12.442c11.904-2.616,21.55-12.426,21.55-21.914v-58.378l58.194-12.79
		v45.317c-3.763-1.736-8.643-2.222-13.978-1.044c-11.904,2.616-21.55,12.426-21.55,21.914s9.651,15.058,21.55,12.442
		c11.904-2.616,21.55-12.426,21.55-21.914v-58.378v-12.375L299.243,233.421z"/>
</g>
<g>
</g>
<g>
</g>
<g>
</g>
<g>
</g>
<g>
</g>
<g>
</g>
<g>
</g>
<g>
</g>
<g>
</g>
<g>
</g>
<g>
</g>
<g>
</g>
<g>
</g>
<g>
</g>
<g>
</g>
</svg>
